<?xml version="1.0" encoding="UTF-8"?>
<!DOCTYPE svg PUBLIC "-//W3C//DTD SVG 1.1//EN" "http://www.w3.org/Graphics/SVG/1.1/DTD/svg11.dtd">
<!-- Creator: CorelDRAW X8 -->
<svg xmlns="http://www.w3.org/2000/svg" xml:space="preserve" width="30.245mm" height="28.8097mm" version="1.1" style="shape-rendering:geometricPrecision; text-rendering:geometricPrecision; image-rendering:optimizeQuality; fill-rule:evenodd; clip-rule:evenodd"
viewBox="0 0 1009 962"
 xmlns:xlink="http://www.w3.org/1999/xlink">
 <defs>
  <style type="text/css">
   <![CDATA[
    .str0 {stroke:#FEFEFE;stroke-width:6.67538}
    .fil0 {fill:none}
    .fil2 {fill:#FEFEFE}
    .fil1 {fill:#2B2A29}
   ]]>
  </style>
 </defs>
 <g id="Capa_x0020_1">
  <metadata id="CorelCorpID_0Corel-Layer"/>
  <g id="_731168368">
   <g>
    <line class="fil0 str0" x1="760" y1="650" x2="760" y2= "392" />
    <path class="fil1" d="M451 534l0 29c2,3 4,26 5,33 7,27 20,58 37,79 2,3 5,7 8,10 5,7 22,24 29,29 15,11 29,21 49,29 79,34 171,14 230,-44 51,-51 82,-140 44,-231 -8,-18 -24,-44 -37,-57 -4,-4 -6,-7 -10,-11 -21,-18 -41,-35 -70,-44 -5,-2 -9,-4 -14,-5 -5,-2 -10,-3 -15,-4 -8,-2 -30,-4 -34,-6l-26 0c-1,1 -18,3 -21,4 -84,12 -158,85 -171,169l-4 20z"/>
    <path class="fil2" d="M644 395c-143,19 -186,188 -85,275 26,22 71,43 119,37 37,-5 79,-25 102,-55 13,-17 21,-27 29,-50 19,-53 7,-107 -27,-151 -18,-23 -42,-37 -69,-48 -18,-7 -48,-11 -69,-8z"/>
    <path class="fil1" d="M951 899l11 0c1,0 6,-1 9,-2 36,-11 36,-40 38,-46l0 -10c-7,-15 4,-14 -30,-46l-75 -75c-3,-4 -34,-36 -38,-37 -3,2 -6,8 -8,11l-12 15c-2,2 -2,3 -4,5 -8,9 -29,27 -39,34 -3,3 -8,5 -10,8 1,3 15,16 19,20 6,6 12,12 18,18l76 76c6,6 12,12 19,18 11,9 20,9 26,11z"/>
    <path class="fil1" d="M539 550l34 0c1,-5 1,-12 3,-18 1,-6 3,-12 5,-17 2,-5 5,-10 8,-14 10,-14 20,-22 36,-30 5,-2 10,-4 16,-5 6,-2 13,-2 20,-3l0 -34c-15,-2 -39,5 -50,10 -28,13 -49,34 -61,61 -5,11 -13,36 -11,50z"/>
   </g>
   <path class="fil1" d="M519 955l135 -5c1,-36 3,-89 2,-148 -133,-6 -240,-117 -240,-252 0,-68 28,-130 72,-176 -27,-6 -55,-9 -83,-10 46,-64 123,-105 100,-221 -40,-199 -303,-177 -345,-14 -31,121 55,168 103,232 -102,3 -181,39 -219,94 -34,48 -41,129 -43,214 -3,110 6,227 9,292 165,1 338,1 509,-6z"/>
  </g>
 </g>
</svg>
