<?xml version="1.0" encoding="UTF-8"?>
<!DOCTYPE svg PUBLIC "-//W3C//DTD SVG 1.1//EN" "http://www.w3.org/Graphics/SVG/1.1/DTD/svg11.dtd">
<!-- Creator: CorelDRAW X8 -->
<svg xmlns="http://www.w3.org/2000/svg" xml:space="preserve" width="27.51mm" height="38.3799mm" version="1.1" style="shape-rendering:geometricPrecision; text-rendering:geometricPrecision; image-rendering:optimizeQuality; fill-rule:evenodd; clip-rule:evenodd"
viewBox="0 0 38311 53449"
 xmlns:xlink="http://www.w3.org/1999/xlink">
 <defs>
  <style type="text/css">
   <![CDATA[
    .fil2 {fill:#2B2A29}
    .fil0 {fill:#010101}
    .fil1 {fill:#FCFCFC}
   ]]>
  </style>
 </defs>
 <g id="Capa_x0020_1">
  <metadata id="CorelCorpID_0Corel-Layer"/>
  <g id="_730757792">
   <path class="fil0" d="M34973 25354c0,0 0,0 0,0z"/>
   <polygon class="fil1" points="2517,26741 35943,26741 35943,0 2517,0 "/>
   <path class="fil2" d="M26364 26059c372,-1065 -56,-2701 -174,-3982 2565,-1002 3837,-1521 5062,-3374 4225,-6387 -3942,-13193 -11730,-10168 -6041,2347 -6794,9664 -1288,12739 993,554 2476,652 3195,1050 1093,605 3326,3912 4935,3735z"/>
   <path class="fil2" d="M10069 17627c-74,1297 -529,3059 -242,4186 1115,-190 1632,-717 2400,-1412l2020 -2212c-1807,-4712 330,-9491 6746,-10862 -1457,-2206 -2750,-3816 -6241,-4393 -3457,-572 -6536,374 -8449,2186 -4822,4571 -2195,10915 3766,12507z"/>
   <path class="fil1" d="M24853 23403l-128 -2424c2078,-835 3282,-857 4621,-2172 1078,-1058 2056,-3166 1334,-5299 -1094,-3236 -5256,-4887 -9521,-3982 -3348,710 -6835,4091 -4531,8230 2155,3871 4518,1920 6269,3978 557,655 1177,1262 1956,1669z"/>
   <path class="fil2" d="M20752 16444c480,-1121 -138,-2106 -1090,-1540 -852,507 -711,2016 1090,1540z"/>
   <path class="fil2" d="M24294 15194c-1062,-733 -2157,-167 -1608,948 393,796 1790,741 1608,-948z"/>
   <path class="fil2" d="M26928 15120c-1062,-732 -2157,-166 -1607,949 391,796 1789,740 1607,-949z"/>
   <path class="fil2" d="M14708 49938l3829 -147c95,-3104 386,-10532 -1332,-14248 -744,-1611 -3315,-2281 -5731,-2364 1328,-1830 3507,-2985 2852,-6280 -1147,-5646 -8591,-5017 -9796,-388 -867,3421 1570,4769 2922,6564 -2875,103 -5120,1130 -6213,2687 -959,1365 -1162,3648 -1224,6055 -79,3123 171,6457 262,8282 4694,44 9586,38 14431,-161z"/>
   <path class="fil2" d="M34403 53266l3829 -147c95,-3104 386,-10532 -1332,-14249 -744,-1610 -3316,-2280 -5731,-2364 1328,-1829 3507,-2984 2851,-6279 -1146,-5646 -8591,-5017 -9795,-388 -867,3421 1570,4769 2922,6564 -2875,102 -5120,1129 -6213,2686 -959,1366 -1163,3649 -1224,6056 -79,3122 171,6456 262,8282 4694,43 9586,38 14431,-161z"/>
  </g>
 </g>
</svg>
