<?xml version="1.0" encoding="UTF-8"?>
<!DOCTYPE svg PUBLIC "-//W3C//DTD SVG 1.1//EN" "http://www.w3.org/Graphics/SVG/1.1/DTD/svg11.dtd">
<!-- Creator: CorelDRAW X8 -->
<svg xmlns="http://www.w3.org/2000/svg" xml:space="preserve" width="21.0688mm" height="30.7471mm" version="1.1" style="shape-rendering:geometricPrecision; text-rendering:geometricPrecision; image-rendering:optimizeQuality; fill-rule:evenodd; clip-rule:evenodd"
viewBox="0 0 324 472"
 xmlns:xlink="http://www.w3.org/1999/xlink">
 <defs>
  <style type="text/css">
   <![CDATA[
    .fil0 {fill:#2B2A29}
    .fil1 {fill:black}
   ]]>
  </style>
 </defs>
 <g id="Capa_x0020_1">
  <metadata id="CorelCorpID_0Corel-Layer"/>
  <g id="_730809376">
   <path class="fil0" d="M45 333c0,0 -1,-2 0,26l-1 113 50 0c0,-24 0,-48 0,-72 0,-12 -1,-57 -1,-68 27,0 7,0 27,0l2 140 47 0 1 -306 117 0 1 -48 -151 0c14,-21 38,-33 31,-70 -13,-64 -100,-62 -114,-4 -10,38 15,53 30,72 -104,19 -82,69 -82,214l43 3z"/>
   <path class="fil1" d="M273 117c1,44 0,0 1,44 -3,11 -3,0 -14,14 -10,11 -11,43 29,42 18,0 30,-5 33,-20 6,-24 -14,-26 -17,-35l0 -49c30,-16 24,-52 -16,-52 -17,0 -31,5 -34,20 -2,8 0,16 4,22 3,5 2,3 7,6 10,7 4,-1 7,8z"/>
  </g>
 </g>
</svg>
