<?xml version="1.0" encoding="UTF-8"?>
<!DOCTYPE svg PUBLIC "-//W3C//DTD SVG 1.1//EN" "http://www.w3.org/Graphics/SVG/1.1/DTD/svg11.dtd">
<!-- Creator: CorelDRAW X8 -->
<svg xmlns="http://www.w3.org/2000/svg" xml:space="preserve" width="12.7677mm" height="9.8448mm" version="1.1" style="shape-rendering:geometricPrecision; text-rendering:geometricPrecision; image-rendering:optimizeQuality; fill-rule:evenodd; clip-rule:evenodd"
viewBox="0 0 225 174"
 xmlns:xlink="http://www.w3.org/1999/xlink">
 <defs>
  <style type="text/css">
   <![CDATA[
    .fil1 {fill:#FEFEFE}
    .fil0 {fill:#EE3A37}
   ]]>
  </style>
 </defs>
 <g id="Capa_x0020_1">
  <metadata id="CorelCorpID_0Corel-Layer"/>
  <g id="_613104800">
   <polygon class="fil0" points="54,0 171,0 225,88 171,174 55,173 0,87 "/>
   <path class="fil1" d="M70 147l86 0 0 -6 -5 0 0 -5c-1,0 -1,0 -2,0 0,-10 -6,-20 -10,-27 -5,-7 -7,-9 -13,-15 -1,-2 -3,-4 -4,-5 1,-2 3,-4 4,-6 2,-1 3,-3 5,-5 7,-8 18,-24 18,-36 1,-1 1,-1 2,-1l0 -5 5 0 0 -6 -86 0c0,0 0,-1 0,1l0 5 4 0c0,2 0,4 0,5 1,1 0,-1 1,1 0,1 0,2 0,3 2,13 14,29 23,38 1,1 4,4 4,6 0,1 -7,8 -9,11 -7,9 -17,22 -18,34 0,2 0,1 -1,2 0,1 0,3 0,5l-4 0 0 5c0,2 0,1 0,1z"/>
   <path class="fil0" d="M108 89c0,1 -3,4 -4,5 -5,5 -9,9 -13,16 -4,4 -13,18 -12,26l7 0c2,-3 3,-4 6,-6l13 -12c8,-6 8,-6 16,0l13 11c2,2 4,4 5,7l6 0c0,-9 -8,-21 -12,-27 -2,-3 -5,-7 -8,-10 -2,-2 -8,-9 -9,-10 1,-2 7,-8 9,-10 7,-9 20,-26 20,-38l-66 0c0,9 8,21 12,27 5,6 8,10 13,15 1,2 4,4 4,6z"/>
   <path class="fil1" d="M131 54l-37 0c-2,4 0,6 2,8 1,2 3,5 5,7 2,2 3,4 5,6 6,7 7,8 13,0l11 -12c2,-3 4,-5 1,-9z"/>
  </g>
 </g>
</svg>
