<?xml version="1.0" encoding="UTF-8"?>
<!DOCTYPE svg PUBLIC "-//W3C//DTD SVG 1.1//EN" "http://www.w3.org/Graphics/SVG/1.1/DTD/svg11.dtd">
<!-- Creator: CorelDRAW X8 -->
<svg xmlns="http://www.w3.org/2000/svg" xml:space="preserve" width="12.7677mm" height="9.8448mm" version="1.1" style="shape-rendering:geometricPrecision; text-rendering:geometricPrecision; image-rendering:optimizeQuality; fill-rule:evenodd; clip-rule:evenodd"
viewBox="0 0 208 161"
 xmlns:xlink="http://www.w3.org/1999/xlink">
 <defs>
  <style type="text/css">
   <![CDATA[
    .fil1 {fill:#FEFEFE}
    .fil0 {fill:#898989}
   ]]>
  </style>
 </defs>
 <g id="Capa_x0020_1">
  <metadata id="CorelCorpID_0Corel-Layer"/>
  <g id="_730812416">
   <polygon class="fil0" points="50,0 159,0 208,81 158,161 51,161 0,80 "/>
   <g>
    <path class="fil1" d="M65 136l80 0 0 -6 -5 0 0 -4c-1,0 -1,0 -2,0 0,-10 -6,-19 -10,-25 -4,-6 -6,-8 -11,-14 -1,-1 -3,-4 -4,-5 1,-1 3,-3 4,-5 1,-1 3,-3 4,-4 7,-8 17,-23 17,-34 1,-1 1,-1 2,-1l0 -4 5 0 0 -6 -80 0c-1,0 0,-1 -1,1l1 4 3 1c1,1 0,3 1,4 0,1 0,-1 0,1 0,1 0,2 1,3 1,11 13,26 20,35 2,1 4,4 5,5 -1,1 -7,8 -9,10 -7,9 -16,21 -17,32 0,2 0,1 0,2 -1,1 0,3 -1,4l-3 1 -1 5c1,1 0,0 1,0z"/>
    <path class="fil0" d="M100 82c0,1 -3,4 -4,5 -4,5 -8,9 -12,15 -3,4 -11,17 -11,24l7 0c1,-3 2,-3 5,-6l12 -10c7,-6 8,-6 15,0l12 10c2,2 4,3 5,6l5 0c0,-8 -7,-20 -10,-25 -3,-3 -6,-6 -8,-10 -2,-2 -8,-7 -9,-9 1,-1 7,-7 9,-9 6,-8 19,-24 18,-35l-61 0c0,8 8,20 11,25 5,6 8,9 12,14 1,1 4,4 4,5z"/>
    <path class="fil1" d="M122 50l-35 0c-2,3 0,6 2,8 1,2 3,4 5,6 1,2 3,3 5,5 5,7 5,8 12,1l9 -12c2,-2 4,-5 2,-8z"/>
   </g>
  </g>
 </g>
</svg>
