<?xml version="1.0" encoding="UTF-8"?>
<!DOCTYPE svg PUBLIC "-//W3C//DTD SVG 1.1//EN" "http://www.w3.org/Graphics/SVG/1.1/DTD/svg11.dtd">
<!-- Creator: CorelDRAW X8 -->
<svg xmlns="http://www.w3.org/2000/svg" xml:space="preserve" width="35.17mm" height="33.5817mm" version="1.1" style="shape-rendering:geometricPrecision; text-rendering:geometricPrecision; image-rendering:optimizeQuality; fill-rule:evenodd; clip-rule:evenodd"
viewBox="0 0 864 825"
 xmlns:xlink="http://www.w3.org/1999/xlink">
 <defs>
  <style type="text/css">
   <![CDATA[
    .fil2 {fill:#2B2A29}
    .fil1 {fill:#010101}
    .fil0 {fill:#FDFDFD}
   ]]>
  </style>
 </defs>
 <g id="Capa_x0020_1">
  <metadata id="CorelCorpID_0Corel-Layer"/>
  <g id="_732149696">
   <polygon class="fil0" points="0,825 864,825 864,0 0,0 "/>
   <path class="fil1" d="M427 131c2,48 10,15 80,37 24,8 57,25 73,39 40,35 71,76 81,146 -17,-7 -42,-32 -54,-18 -16,19 68,69 73,71l54 -63c4,-6 5,-6 5,-11l0 -8c-2,-33 -45,18 -48,20 -12,-31 -13,-52 -30,-85 -14,-25 -36,-52 -55,-68 -29,-24 -122,-82 -179,-60z"/>
   <path class="fil1" d="M115 531c23,13 38,-13 47,-29 15,22 20,64 33,89 51,98 192,155 234,123 -4,-48 -66,5 -153,-71 -38,-33 -74,-79 -80,-147 13,8 52,45 53,11 0,-14 -12,-19 -28,-31 -16,-12 -29,-22 -44,-33 -18,17 -67,66 -62,88z"/>
   <path class="fil2" d="M372 423l54 -2c2,-44 6,-149 -18,-202 -11,-22 -47,-32 -82,-33 19,-26 50,-42 41,-89 -16,-80 -122,-71 -139,-5 -12,48 22,67 42,93 -41,1 -73,16 -88,38 -14,19 -17,51 -18,85 -1,45 3,92 4,118 66,0 136,0 204,-3z"/>
   <path class="fil2" d="M649 735l54 -2c1,-44 6,-149 -19,-201 -10,-23 -47,-33 -81,-34 19,-26 50,-42 40,-89 -16,-80 -121,-71 -138,-5 -13,48 22,67 41,93 -41,1 -72,16 -88,38 -13,19 -16,51 -17,85 -1,45 2,92 3,118 67,0 136,0 205,-3z"/>
  </g>
 </g>
</svg>
