<?xml version="1.0" encoding="UTF-8"?>
<!DOCTYPE svg PUBLIC "-//W3C//DTD SVG 1.1//EN" "http://www.w3.org/Graphics/SVG/1.1/DTD/svg11.dtd">
<!-- Creator: CorelDRAW X8 -->
<svg xmlns="http://www.w3.org/2000/svg" xml:space="preserve" width="12.7677mm" height="9.8448mm" version="1.1" style="shape-rendering:geometricPrecision; text-rendering:geometricPrecision; image-rendering:optimizeQuality; fill-rule:evenodd; clip-rule:evenodd"
viewBox="0 0 379 292"
 xmlns:xlink="http://www.w3.org/1999/xlink">
 <defs>
  <style type="text/css">
   <![CDATA[
    .fil0 {fill:#EE3A37}
    .fil1 {fill:white}
   ]]>
  </style>
 </defs>
 <g id="Capa_x0020_1">
  <metadata id="CorelCorpID_0Corel-Layer"/>
  <g id="_613102624">
   <polygon class="fil0" points="91,0 289,0 379,148 288,292 93,292 0,146 "/>
   <path class="fil1" d="M165 56c-12,4 -2,9 -13,18 -24,18 -24,41 -19,71 2,8 8,28 8,35 -2,13 -13,17 -8,33 3,11 14,15 26,16 25,4 53,-2 72,-11 18,-8 39,-21 50,-37 6,-9 11,-20 3,-31 -6,-8 -19,-7 -26,-17 -3,-4 -5,-9 -7,-14 -7,-15 -14,-29 -24,-41 -15,-19 -36,-15 -47,-17 -8,-1 -8,-7 -15,-5z"/>
   <path class="fil0" d="M147 211c18,12 60,2 78,-5 12,-6 20,-11 29,-18 3,-2 23,-20 20,-26 -4,-8 -30,-7 -39,-5 -14,3 -24,6 -37,11 -12,5 -20,10 -31,16 -6,4 -21,16 -20,27z"/>
   <path class="fil1" d="M163 197c2,5 12,5 17,5 7,0 13,-2 18,-4 8,-4 19,-13 16,-27 -6,1 -22,8 -27,11 -4,2 -9,5 -13,7 -3,2 -8,6 -11,8z"/>
  </g>
 </g>
</svg>
