<?xml version="1.0" encoding="UTF-8"?>
<!DOCTYPE svg PUBLIC "-//W3C//DTD SVG 1.1//EN" "http://www.w3.org/Graphics/SVG/1.1/DTD/svg11.dtd">
<!-- Creator: CorelDRAW X8 -->
<svg xmlns="http://www.w3.org/2000/svg" xml:space="preserve" width="31.9644mm" height="31.5513mm" version="1.1" style="shape-rendering:geometricPrecision; text-rendering:geometricPrecision; image-rendering:optimizeQuality; fill-rule:evenodd; clip-rule:evenodd"
viewBox="0 0 677 668"
 xmlns:xlink="http://www.w3.org/1999/xlink">
 <defs>
  <style type="text/css">
   <![CDATA[
    .fil0 {fill:#2B2A29}
   ]]>
  </style>
 </defs>
 <g id="Capa_x0020_1">
  <metadata id="CorelCorpID_0Corel-Layer"/>
  <g id="_730818368">
   <path class="fil0" d="M64 471c0,0 -2,-2 -1,37l0 160 69 0c1,-34 1,-68 1,-102 0,-16 -1,-80 -1,-97 37,1 10,1 37,1l4 198 66 0 2 -433 166 0 0 -68 -214 -1c21,-28 55,-46 45,-98 -18,-91 -141,-89 -162,-6 -14,53 22,75 44,103 -148,27 -117,97 -117,302l61 4z"/>
   <path class="fil0" d="M341 33l-65 0 -1 68 336 0 0 300 -335 3 -3 65c27,0 32,-3 49,7l-52 118 1 49 34 0 69 -132 68 127 63 0 -78 -167 250 -2 0 -434c-80,-6 -169,2 -230,-1 -65,-3 -19,1 -48,-34l-49 0c-12,17 -8,4 -9,33z"/>
  </g>
 </g>
</svg>
