<?xml version="1.0" encoding="UTF-8"?>
<!DOCTYPE svg PUBLIC "-//W3C//DTD SVG 1.1//EN" "http://www.w3.org/Graphics/SVG/1.1/DTD/svg11.dtd">
<!-- Creator: CorelDRAW X8 -->
<svg xmlns="http://www.w3.org/2000/svg" xml:space="preserve" width="2.1103mm" height="3.0911mm" version="1.1" style="shape-rendering:geometricPrecision; text-rendering:geometricPrecision; image-rendering:optimizeQuality; fill-rule:evenodd; clip-rule:evenodd"
viewBox="0 0 27 40"
 xmlns:xlink="http://www.w3.org/1999/xlink">
 <defs>
  <style type="text/css">
   <![CDATA[
    .fil0 {fill:#373435}
   ]]>
  </style>
 </defs>
 <g id="Capa_x0020_1">
  <metadata id="CorelCorpID_0Corel-Layer"/>
  <path class="fil0" d="M22 40l5 -1c0,-4 1,-15 -2,-20 -1,-3 -5,-4 -8,-4 2,-3 5,-4 4,-9 -2,-8 -13,-7 -14,-1 -2,5 2,7 4,10 -4,0 -8,2 -9,4 -2,2 -2,5 -2,9 0,4 0,9 0,12 7,0 14,0 22,0z"/>
 </g>
</svg>
