<?xml version="1.0" encoding="UTF-8"?>
<!DOCTYPE svg PUBLIC "-//W3C//DTD SVG 1.1//EN" "http://www.w3.org/Graphics/SVG/1.1/DTD/svg11.dtd">
<!-- Creator: CorelDRAW X8 -->
<svg xmlns="http://www.w3.org/2000/svg" xml:space="preserve" width="30.9978mm" height="27.0018mm" version="1.1" style="shape-rendering:geometricPrecision; text-rendering:geometricPrecision; image-rendering:optimizeQuality; fill-rule:evenodd; clip-rule:evenodd"
viewBox="0 0 1310 1141"
 xmlns:xlink="http://www.w3.org/1999/xlink">
 <defs>
  <style type="text/css">
   <![CDATA[
    .fil0 {fill:#2B2A29}
   ]]>
  </style>
 </defs>
 <g id="Capa_x0020_1">
  <metadata id="CorelCorpID_0Corel-Layer"/>
  <g id="_731164048">
   <path class="fil0" d="M284 833l-4 -295 472 1c55,0 7,-103 -35,-144 -40,-38 -103,-71 -179,-73 42,-57 110,-93 89,-196 -35,-176 -267,-156 -305,-12 -27,106 49,148 91,204 -89,4 -159,36 -193,84 -63,90 -138,302 -76,430l-144 2 3 84c184,-1 395,-1 580,-2 28,-10 22,-79 0,-80l-299 -3z"/>
   <path class="fil0" d="M1171 1134l136 -5c3,-110 14,-375 -47,-507 -27,-57 -118,-81 -204,-84 47,-65 124,-107 101,-224 -41,-201 -306,-178 -349,-14 -31,122 56,170 104,234 -102,4 -182,40 -221,96 -34,48 -41,130 -43,215 -3,111 6,230 9,295 167,2 341,2 514,-6z"/>
  </g>
 </g>
</svg>
