<?xml version="1.0" encoding="UTF-8"?>
<!DOCTYPE svg PUBLIC "-//W3C//DTD SVG 1.1//EN" "http://www.w3.org/Graphics/SVG/1.1/DTD/svg11.dtd">
<!-- Creator: CorelDRAW X8 -->
<svg xmlns="http://www.w3.org/2000/svg" xml:space="preserve" width="14.9128mm" height="11.1087mm" version="1.1" style="shape-rendering:geometricPrecision; text-rendering:geometricPrecision; image-rendering:optimizeQuality; fill-rule:evenodd; clip-rule:evenodd"
viewBox="0 0 156 116"
 xmlns:xlink="http://www.w3.org/1999/xlink">
 <defs>
  <style type="text/css">
   <![CDATA[
    .fil1 {fill:#FEFEFE}
    .fil0 {fill:#898989}
   ]]>
  </style>
 </defs>
 <g id="Capa_x0020_1">
  <metadata id="CorelCorpID_0Corel-Layer"/>
  <g id="_600693680">
   <polygon class="fil0" points="80,0 156,116 0,116 "/>
   <path class="fil1" d="M93 95l-7 0 0 -20c0,0 5,5 19,5l0 7 14 -12 -14 -14 0 7c-28,2 -18,-39 -21,-41l-9 0c-2,3 7,44 -24,41l0 -6 -14 13 14 12c0,-3 0,-4 0,-7 12,0 22,-4 22,-4l0 19c-2,0 -5,0 -7,0l14 13 13 -13z"/>
  </g>
 </g>
</svg>
