<?xml version="1.0" encoding="UTF-8"?>
<!DOCTYPE svg PUBLIC "-//W3C//DTD SVG 1.1//EN" "http://www.w3.org/Graphics/SVG/1.1/DTD/svg11.dtd">
<!-- Creator: CorelDRAW X8 -->
<svg xmlns="http://www.w3.org/2000/svg" xml:space="preserve" width="10.8099mm" height="6.2352mm" version="1.1" style="shape-rendering:geometricPrecision; text-rendering:geometricPrecision; image-rendering:optimizeQuality; fill-rule:evenodd; clip-rule:evenodd"
viewBox="0 0 121 70"
 xmlns:xlink="http://www.w3.org/1999/xlink">
 <defs>
  <style type="text/css">
   <![CDATA[
    .fil1 {fill:#FEFEFE}
    .fil0 {fill:#848688}
    .fil2 {fill:#00A859}
   ]]>
  </style>
 </defs>
 <g id="Capa_x0020_1">
  <metadata id="CorelCorpID_0Corel-Layer"/>
  <g id="_613120640">
   <g>
    <path class="fil0" d="M17 4c-25,13 -21,59 6,64 12,3 76,3 84,-2 22,-13 18,-59 -6,-64 -12,-3 -76,-3 -84,2z"/>
    <path class="fil1" d="M20 8c-23,11 -20,52 6,56 11,3 71,3 78,-2 20,-11 16,-52 -6,-56 -11,-3 -70,-3 -78,2z"/>
   </g>
   <polygon class="fil2" points="48,53 85,33 85,33 48,13 "/>
  </g>
 </g>
</svg>
