<?xml version="1.0" encoding="UTF-8"?>
<!DOCTYPE svg PUBLIC "-//W3C//DTD SVG 1.1//EN" "http://www.w3.org/Graphics/SVG/1.1/DTD/svg11.dtd">
<!-- Creator: CorelDRAW X8 -->
<svg xmlns="http://www.w3.org/2000/svg" xml:space="preserve" width="13.7851mm" height="8.5084mm" version="1.1" style="shape-rendering:geometricPrecision; text-rendering:geometricPrecision; image-rendering:optimizeQuality; fill-rule:evenodd; clip-rule:evenodd"
viewBox="0 0 1925 1188"
 xmlns:xlink="http://www.w3.org/1999/xlink">
 <defs>
  <style type="text/css">
   <![CDATA[
    .fil0 {fill:#010002}
   ]]>
  </style>
 </defs>
 <g id="Capa_x0020_1">
  <metadata id="CorelCorpID_0Corel-Layer"/>
  <g id="_701086656">
   <path class="fil0" d="M1623 5c-109,23 -202,124 -175,261 15,75 74,142 152,165 -15,2 -29,5 -43,8 -163,37 -202,247 -414,330 -83,32 -247,15 -245,133 4,172 310,56 393,7 42,-24 76,-54 112,-74l0 353 520 0c0,-123 0,-245 0,-368 0,-121 15,-246 -52,-324 -29,-34 -86,-55 -149,-64 263,-69 179,-483 -99,-427z"/>
   <path class="fil0" d="M224 10c-111,20 -205,120 -181,255 18,95 79,151 150,171 -139,14 -193,89 -193,249 0,167 0,335 0,503l520 0 0 -354c85,44 158,128 344,150 -51,-130 -11,-120 14,-187 -116,-55 -158,-17 -306,-188 -106,-123 -130,-164 -252,-174 97,-26 177,-112 157,-245 -17,-109 -125,-203 -253,-180z"/>
  </g>
 </g>
</svg>
