<?xml version="1.0" encoding="UTF-8"?>
<!DOCTYPE svg PUBLIC "-//W3C//DTD SVG 1.1//EN" "http://www.w3.org/Graphics/SVG/1.1/DTD/svg11.dtd">
<!-- Creator: CorelDRAW X8 -->
<svg xmlns="http://www.w3.org/2000/svg" xml:space="preserve" width="10.3461mm" height="9.0124mm" version="1.1" style="shape-rendering:geometricPrecision; text-rendering:geometricPrecision; image-rendering:optimizeQuality; fill-rule:evenodd; clip-rule:evenodd"
viewBox="0 0 76 66"
 xmlns:xlink="http://www.w3.org/1999/xlink">
 <defs>
  <style type="text/css">
   <![CDATA[
    .fil0 {fill:#1C1B17}
   ]]>
  </style>
 </defs>
 <g id="Capa_x0020_1">
  <metadata id="CorelCorpID_0Corel-Layer"/>
  <g id="_701087104">
   <path class="fil0" d="M16 48l0 -17 28 0c3,0 0,-6 -2,-8 -3,-2 -6,-4 -11,-4 3,-4 7,-6 5,-12 -2,-10 -15,-9 -17,0 -2,6 3,8 5,11 -5,1 -9,3 -11,5 -4,6 -8,18 -5,25l-8 0 0 5c11,0 23,0 34,0 1,0 1,-4 0,-4l-18 -1z"/>
   <path class="fil0" d="M68 66l8 0c0,-7 1,-22 -3,-30 -1,-3 -7,-5 -12,-5 3,-4 8,-6 6,-13 -2,-11 -18,-10 -20,-1 -2,8 3,10 6,14 -6,0 -11,2 -13,6 -2,2 -2,7 -2,12 -1,7 0,13 0,17 10,0 20,0 30,0z"/>
  </g>
 </g>
</svg>
