<?xml version="1.0" encoding="UTF-8"?>
<!DOCTYPE svg PUBLIC "-//W3C//DTD SVG 1.1//EN" "http://www.w3.org/Graphics/SVG/1.1/DTD/svg11.dtd">
<!-- Creator: CorelDRAW X8 -->
<svg xmlns="http://www.w3.org/2000/svg" xml:space="preserve" width="5.5299mm" height="8.8901mm" version="1.1" style="shape-rendering:geometricPrecision; text-rendering:geometricPrecision; image-rendering:optimizeQuality; fill-rule:evenodd; clip-rule:evenodd"
viewBox="0 0 49 79"
 xmlns:xlink="http://www.w3.org/1999/xlink">
 <defs>
  <style type="text/css">
   <![CDATA[
    .fil0 {fill:#1C1B17}
   ]]>
  </style>
 </defs>
 <g id="Capa_x0020_1">
  <metadata id="CorelCorpID_0Corel-Layer"/>
  <g id="_701057408">
   <path class="fil0" d="M8 53l0 22c0,3 1,4 4,4l25 0c2,0 3,-1 3,-4l0 -22c0,-3 -1,-4 -4,-4l-25 0c-2,0 -3,1 -3,4z"/>
   <path class="fil0" d="M0 42c0,4 0,6 3,6l43 0c3,0 3,-2 3,-6 0,-2 -1,-3 -3,-3l-43 0c-2,0 -3,1 -3,3z"/>
   <path class="fil0" d="M31 38l6 0c0,-5 1,-14 -2,-19 -1,-3 -5,-4 -8,-4 2,-3 5,-4 4,-9 -2,-8 -13,-7 -14,-1 -2,5 2,7 4,10 -4,0 -8,2 -9,4 -2,2 -2,5 -2,9 0,4 0,7 0,10 7,0 14,0 21,0z"/>
  </g>
 </g>
</svg>
