<?xml version="1.0" encoding="UTF-8"?>
<!DOCTYPE svg PUBLIC "-//W3C//DTD SVG 1.1//EN" "http://www.w3.org/Graphics/SVG/1.1/DTD/svg11.dtd">
<!-- Creator: CorelDRAW X8 -->
<svg xmlns="http://www.w3.org/2000/svg" xml:space="preserve" width="6.9294mm" height="9.1668mm" version="1.1" style="shape-rendering:geometricPrecision; text-rendering:geometricPrecision; image-rendering:optimizeQuality; fill-rule:evenodd; clip-rule:evenodd"
viewBox="0 0 76 100"
 xmlns:xlink="http://www.w3.org/1999/xlink">
 <defs>
  <style type="text/css">
   <![CDATA[
    .fil1 {fill:#1C1B17}
    .fil0 {fill:#010101}
    .fil2 {fill:#A3BFE0}
   ]]>
  </style>
 </defs>
 <g id="Capa_x0020_1">
  <metadata id="CorelCorpID_0Corel-Layer"/>
  <g id="_701090016">
   <path class="fil0" d="M69 45c0,0 0,0 0,0z"/>
   <path class="fil1" d="M52 46c1,-2 0,-5 0,-8 5,-2 7,-3 10,-6 8,-13 -8,-27 -23,-21 -12,5 -14,20 -3,26 2,1 5,1 6,2 3,1 7,7 10,7z"/>
   <path class="fil1" d="M20 29c0,3 -1,6 -1,9 3,-1 4,-2 5,-3l4 -5c-3,-9 1,-18 13,-21 -2,-4 -5,-8 -12,-9 -7,-1 -13,1 -17,5 -9,9 -4,21 8,24z"/>
   <path class="fil2" d="M49 41l0 -5c4,-2 6,-2 9,-4 2,-2 4,-7 3,-11 -3,-6 -11,-9 -19,-8 -7,2 -14,8 -9,17 4,7 9,3 12,7 1,2 3,3 4,4z"/>
   <path class="fil1" d="M41 27c1,-2 0,-4 -2,-3 -2,1 -2,4 2,3z"/>
   <path class="fil1" d="M48 25c-2,-2 -4,-1 -3,1 1,2 3,2 3,-1z"/>
   <path class="fil1" d="M53 24c-2,-1 -4,0 -3,2 1,2 4,2 3,-2z"/>
   <path class="fil1" d="M29 93l8 0c0,-6 0,-21 -3,-28 -1,-3 -7,-5 -11,-5 2,-4 7,-6 5,-12 -2,-11 -17,-10 -19,-1 -2,7 3,9 6,13 -6,0 -10,2 -13,5 -1,3 -2,7 -2,12 0,6 0,13 1,17 9,0 18,0 28,-1z"/>
   <path class="fil1" d="M68 100l8 0c0,-7 0,-21 -3,-29 -2,-3 -7,-4 -11,-4 2,-4 7,-6 5,-13 -2,-11 -17,-10 -19,0 -2,6 3,9 6,12 -6,1 -10,3 -13,6 -2,2 -2,7 -2,12 0,6 0,13 0,16 10,0 19,0 29,0z"/>
  </g>
 </g>
</svg>
