<?xml version="1.0" encoding="UTF-8"?>
<!DOCTYPE svg PUBLIC "-//W3C//DTD SVG 1.1//EN" "http://www.w3.org/Graphics/SVG/1.1/DTD/svg11.dtd">
<!-- Creator: CorelDRAW X8 -->
<svg xmlns="http://www.w3.org/2000/svg" xml:space="preserve" width="6.4753mm" height="9.1223mm" version="1.1" style="shape-rendering:geometricPrecision; text-rendering:geometricPrecision; image-rendering:optimizeQuality; fill-rule:evenodd; clip-rule:evenodd"
viewBox="0 0 201 283"
 xmlns:xlink="http://www.w3.org/1999/xlink">
 <defs>
  <style type="text/css">
   <![CDATA[
    .fil0 {fill:#1C1B17}
   ]]>
  </style>
 </defs>
 <g id="Capa_x0020_1">
  <metadata id="CorelCorpID_0Corel-Layer"/>
  <g id="_701069280">
   <path class="fil0" d="M102 282l26 -1c1,-22 3,-73 -9,-99 -5,-11 -23,-15 -40,-16 9,-13 25,-21 20,-43 -8,-39 -59,-35 -68,-3 -6,24 11,33 21,45 -20,1 -36,8 -43,19 -7,9 -8,25 -9,42 0,21 1,44 2,57 32,0 66,0 100,-1z"/>
   <path class="fil0" d="M107 101c0,9 -3,21 -1,29 7,-1 11,-5 16,-10l14 -15c81,4 87,-83 12,-103 -23,-6 -53,0 -67,13 -33,31 -15,75 26,86z"/>
  </g>
 </g>
</svg>
