<?xml version="1.0" encoding="UTF-8"?>
<!DOCTYPE svg PUBLIC "-//W3C//DTD SVG 1.1//EN" "http://www.w3.org/Graphics/SVG/1.1/DTD/svg11.dtd">
<!-- Creator: CorelDRAW X8 -->
<svg xmlns="http://www.w3.org/2000/svg" xml:space="preserve" width="6.5457mm" height="9.2214mm" version="1.1" style="shape-rendering:geometricPrecision; text-rendering:geometricPrecision; image-rendering:optimizeQuality; fill-rule:evenodd; clip-rule:evenodd"
viewBox="0 0 42 59"
 xmlns:xlink="http://www.w3.org/1999/xlink">
 <defs>
  <style type="text/css">
   <![CDATA[
    .fil0 {fill:#1C1B17}
    .fil1 {fill:white}
   ]]>
  </style>
 </defs>
 <g id="Capa_x0020_1">
  <metadata id="CorelCorpID_0Corel-Layer"/>
  <g id="_703181184">
   <g>
    <path class="fil0" d="M21 59l6 0c0,-5 0,-15 -2,-21 -1,-2 -5,-3 -8,-3 2,-3 5,-5 4,-9 -2,-8 -13,-8 -14,-1 -2,5 2,7 4,10 -4,0 -8,1 -9,3 -2,2 -2,6 -2,9 0,5 0,10 0,12 7,0 14,0 21,0z"/>
    <path class="fil0" d="M22 21c0,2 0,5 0,6 2,0 2,-1 4,-2l3 -3c16,1 18,-17 2,-21 -5,-2 -11,-1 -14,2 -7,7 -3,16 5,18z"/>
   </g>
   <path class="fil1" d="M27 12c-1,0 -1,-1 -3,-1 -1,1 -1,0 -2,2l5 4 8 -8c-1,-1 -2,-1 -3,-2l-5 5z"/>
  </g>
 </g>
</svg>
