<?xml version="1.0" encoding="UTF-8"?>
<!DOCTYPE svg PUBLIC "-//W3C//DTD SVG 1.1//EN" "http://www.w3.org/Graphics/SVG/1.1/DTD/svg11.dtd">
<!-- Creator: CorelDRAW X8 -->
<svg xmlns="http://www.w3.org/2000/svg" xml:space="preserve" width="7.0552mm" height="8.8031mm" version="1.1" style="shape-rendering:geometricPrecision; text-rendering:geometricPrecision; image-rendering:optimizeQuality; fill-rule:evenodd; clip-rule:evenodd"
viewBox="0 0 326 406"
 xmlns:xlink="http://www.w3.org/1999/xlink">
 <defs>
  <style type="text/css">
   <![CDATA[
    .fil0 {fill:black}
    .fil1 {fill:#F6F6F6}
   ]]>
  </style>
 </defs>
 <g id="Capa_x0020_1">
  <metadata id="CorelCorpID_0Corel-Layer"/>
  <g id="_703179360">
   <path class="fil0" d="M153 101c-53,7 -99,58 -81,120 8,29 24,45 36,68 9,15 3,33 15,37 5,2 43,1 51,1 20,0 36,5 37,-15 4,-42 42,-57 46,-109 5,-58 -45,-109 -104,-102z"/>
   <path class="fil0" d="M157 406l11 0c15,0 15,-12 25,-13 16,-4 19,0 19,-21 0,-34 -1,-28 -49,-29 -49,0 -49,-5 -49,29 0,17 2,18 17,20 8,1 7,4 12,8 4,5 8,6 14,6z"/>
   <path class="fil0" d="M163 0l-5 0 0 0c-15,11 -12,13 -12,44 0,16 -2,38 17,38 19,0 16,-22 16,-38 0,-31 3,-33 -12,-43l-4 -1z"/>
   <path class="fil0" d="M303 68c-9,3 -27,24 -34,32 -23,22 -2,37 12,32 7,-2 28,-26 35,-32 22,-22 2,-38 -13,-32z"/>
   <path class="fil0" d="M10 68c-8,3 -13,12 -8,22 0,0 37,49 55,42 8,-3 12,-12 8,-22 0,-1 -36,-50 -55,-42z"/>
   <path class="fil1" d="M111 227c3,-20 0,-39 23,-61 18,-18 32,-23 60,-25 -64,-33 -116,36 -83,86z"/>
  </g>
 </g>
</svg>
