<?xml version="1.0" encoding="UTF-8"?>
<!DOCTYPE svg PUBLIC "-//W3C//DTD SVG 1.1//EN" "http://www.w3.org/Graphics/SVG/1.1/DTD/svg11.dtd">
<!-- Creator: CorelDRAW X8 -->
<svg xmlns="http://www.w3.org/2000/svg" xml:space="preserve" width="8.2103mm" height="9.1792mm" version="1.1" style="shape-rendering:geometricPrecision; text-rendering:geometricPrecision; image-rendering:optimizeQuality; fill-rule:evenodd; clip-rule:evenodd"
viewBox="0 0 100 111"
 xmlns:xlink="http://www.w3.org/1999/xlink">
 <defs>
  <style type="text/css">
   <![CDATA[
    .fil1 {fill:#252423}
    .fil0 {fill:#010101}
   ]]>
  </style>
 </defs>
 <g id="Capa_x0020_1">
  <metadata id="CorelCorpID_0Corel-Layer"/>
  <g id="_703159968">
   <path class="fil0" d="M50 15c0,7 1,2 12,5 4,2 10,4 12,7 7,5 12,12 13,23 -3,-1 -7,-5 -8,-3 -3,3 10,11 11,11l9 -10c0,-1 0,-1 1,-1l0 -2c-1,-5 -8,3 -8,4 -2,-5 -2,-9 -5,-14 -2,-4 -6,-8 -9,-11 -4,-4 -19,-13 -28,-9z"/>
   <path class="fil0" d="M0 78c4,2 6,-2 7,-4 3,3 4,10 6,14 8,15 30,25 37,19 -1,-7 -10,1 -24,-11 -6,-5 -12,-12 -13,-23 2,1 8,7 8,2 0,-3 -2,-4 -4,-5 -3,-2 -5,-4 -7,-6 -3,3 -11,11 -10,14z"/>
   <path class="fil1" d="M41 61l9 0c0,-7 1,-24 -3,-32 -2,-4 -8,-5 -13,-6 3,-4 8,-6 6,-14 -2,-13 -19,-11 -22,-1 -2,8 4,11 7,15 -7,0 -12,3 -14,6 -3,3 -3,8 -3,14 0,7 0,14 0,19 11,0 22,0 33,-1z"/>
   <path class="fil1" d="M85 111l9 0c0,-7 1,-24 -3,-33 -2,-3 -8,-5 -13,-5 3,-4 8,-7 6,-14 -2,-13 -19,-11 -22,-1 -2,8 4,11 7,15 -7,0 -12,2 -14,6 -2,3 -3,8 -3,14 0,7 0,14 1,18 10,0 21,0 32,0z"/>
  </g>
 </g>
</svg>
