<?xml version="1.0" encoding="UTF-8"?>
<!DOCTYPE svg PUBLIC "-//W3C//DTD SVG 1.1//EN" "http://www.w3.org/Graphics/SVG/1.1/DTD/svg11.dtd">
<!-- Creator: CorelDRAW X8 -->
<svg xmlns="http://www.w3.org/2000/svg" xml:space="preserve" width="11.4341mm" height="8.8984mm" version="1.1" style="shape-rendering:geometricPrecision; text-rendering:geometricPrecision; image-rendering:optimizeQuality; fill-rule:evenodd; clip-rule:evenodd"
viewBox="0 0 510 397"
 xmlns:xlink="http://www.w3.org/1999/xlink">
 <defs>
  <style type="text/css">
   <![CDATA[
    .fil0 {fill:#1C1B17}
   ]]>
  </style>
 </defs>
 <g id="Capa_x0020_1">
  <metadata id="CorelCorpID_0Corel-Layer"/>
  <g id="_701051616">
   <path class="fil0" d="M0 298l247 1c19,0 16,1 24,-11 -23,-12 -196,-14 -235,-16l-2 -244 335 -26c-9,2 -156,-2 -181,-2 -63,0 -126,-1 -188,1l0 297z"/>
   <path class="fil0" d="M263 45l23 8c-6,15 -9,20 -33,26 -118,31 -59,32 -115,64 -13,-11 -26,-30 -40,-40 -23,38 11,31 -47,111 26,-13 46,-25 53,-60 26,12 18,21 39,36 32,-17 37,-54 79,-65 45,-12 68,-5 90,-54 11,7 14,13 21,21l18 -78 -88 31z"/>
   <path class="fil0" d="M261 132l1 132c25,-1 15,11 32,-36 13,-21 15,-23 33,-38 2,-51 5,-55 -9,-96 -14,8 -12,13 -23,22 -9,8 -25,11 -34,16z"/>
   <path class="fil0" d="M190 262c18,5 40,5 59,1l0 -128c-74,0 -60,62 -59,127z"/>
   <path class="fil0" d="M120 193l0 72 59 0 0 -87c-34,19 -12,38 -59,15z"/>
   <path class="fil0" d="M48 265l59 0 0 -71c-13,8 -24,17 -36,25 -27,19 -23,7 -23,46z"/>
   <path class="fil0" d="M464 395l45 -2c1,-37 4,-124 -16,-168 -9,-19 -39,-27 -67,-28 15,-21 41,-35 33,-74 -13,-66 -101,-59 -115,-4 -10,40 18,56 34,77 -33,1 -60,13 -73,32 -11,16 -13,43 -14,71 -1,37 2,76 3,97 55,1 113,1 170,-1z"/>
  </g>
 </g>
</svg>
