<?xml version="1.0" encoding="UTF-8"?>
<!DOCTYPE svg PUBLIC "-//W3C//DTD SVG 1.1//EN" "http://www.w3.org/Graphics/SVG/1.1/DTD/svg11.dtd">
<!-- Creator: CorelDRAW X8 -->
<svg xmlns="http://www.w3.org/2000/svg" xml:space="preserve" width="9.3468mm" height="10.3672mm" version="1.1" style="shape-rendering:geometricPrecision; text-rendering:geometricPrecision; image-rendering:optimizeQuality; fill-rule:evenodd; clip-rule:evenodd"
viewBox="0 0 3460 3838"
 xmlns:xlink="http://www.w3.org/1999/xlink">
 <defs>
  <style type="text/css">
   <![CDATA[
    .fil1 {fill:#FEFEFE}
    .fil0 {fill:#373435}
    .fil3 {fill:#231F27}
    .fil2 {fill:#010101}
   ]]>
  </style>
 </defs>
 <g id="Capa_x0020_1">
  <metadata id="CorelCorpID_0Corel-Layer"/>
  <g id="_613143296">
   <g>
    <path class="fil0" d="M1638 1506c-37,-108 202,-62 208,-318 -209,-145 -228,-359 -172,-590 88,-326 492,-806 1279,-500 612,237 688,978 131,1289 -291,113 -378,155 -802,100 -320,50 -525,43 -644,19z"/>
    <path class="fil1" d="M1862 1425c41,-71 74,-19 104,-306 -179,-125 -195,-307 -147,-504 76,-278 420,-688 1092,-426 521,202 586,833 111,1099 -248,97 -323,133 -684,85 -205,62 -309,58 -476,52z"/>
   </g>
   <g>
    <path class="fil2" d="M2141 3428c5,-151 20,-470 -17,-595l-25 -125c-36,-155 -90,-301 -194,-417 -162,-181 -322,-186 -637,-176 24,226 -12,374 -82,603 -23,75 -183,443 -268,524 -110,104 -195,103 -146,127 54,26 622,-1 895,-77 18,-192 -33,-407 16,-443 33,20 8,-14 27,35 19,51 38,402 7,441 -40,49 -326,76 -377,81 -141,15 -291,19 -437,20 -164,1 -291,-25 -361,102 -73,133 11,267 122,294 136,34 1136,35 1378,-216 47,-48 54,-79 84,-130 4,-7 15,-40 15,-48z"/>
    <path class="fil2" d="M188 3199c264,338 733,230 938,-478 31,-106 112,-389 103,-498 -68,-120 -284,-153 -372,-48 -87,95 -109,584 -273,753 -44,46 -7,16 -47,34 -40,-25 -51,-34 -56,-82 60,-41 15,-2 78,-7 101,-217 199,-479 226,-759 -254,1 -516,-31 -687,220 -177,261 -93,629 90,865z"/>
    <path class="fil2" d="M915 946c-754,184 -488,1277 256,1115 280,-60 510,-356 427,-697 -65,-263 -344,-501 -683,-418z"/>
   </g>
   <rect class="fil3" x="2369" y="812" width="146" height="379"/>
   <rect class="fil3" x="2595" y="593" width="180" height="605"/>
   <rect class="fil0" x="2854" y="480" width="185" height="719"/>
   <rect class="fil3" x="2143" y="1002" width="146" height="190"/>
  </g>
 </g>
</svg>
