<?xml version="1.0" encoding="UTF-8"?>
<!DOCTYPE svg PUBLIC "-//W3C//DTD SVG 1.1//EN" "http://www.w3.org/Graphics/SVG/1.1/DTD/svg11.dtd">
<!-- Creator: CorelDRAW X8 -->
<svg xmlns="http://www.w3.org/2000/svg" xml:space="preserve" width="12.041mm" height="9.6983mm" version="1.1" style="shape-rendering:geometricPrecision; text-rendering:geometricPrecision; image-rendering:optimizeQuality; fill-rule:evenodd; clip-rule:evenodd"
viewBox="0 0 122 98"
 xmlns:xlink="http://www.w3.org/1999/xlink">
 <defs>
  <style type="text/css">
   <![CDATA[
    .fil4 {fill:#FEFEFE}
    .fil3 {fill:#373435}
    .fil2 {fill:#231F27}
    .fil5 {fill:black}
    .fil0 {fill:#010101}
    .fil1 {fill:#FCFCFC}
   ]]>
  </style>
 </defs>
 <g id="Capa_x0020_1">
  <metadata id="CorelCorpID_0Corel-Layer"/>
  <g id="_613116512">
   <g>
    <path class="fil0" d="M40 76l11 0c-1,2 0,4 -1,6l-48 0 1 -4 -3 0 0 -2 40 0z"/>
    <path class="fil0" d="M39 58l-5 0 -1 9c-2,0 -9,-2 -11,-3l0 -6c-2,1 -3,2 -3,5 10,6 13,3 15,6 1,3 1,5 -1,6 -7,1 -12,-1 -17,-4 -13,-8 0,-22 8,-24 3,-1 8,-1 11,0 3,2 6,2 9,1 2,-1 5,-3 7,0 1,1 1,5 2,6 5,6 5,6 7,9 -3,0 -7,4 -7,5 0,1 -1,-2 -2,-2l-1 9c-6,1 -8,0 -10,-1 -1,-1 -1,-8 -1,-16z"/>
    <path class="fil0" d="M43 47c-12,4 -21,-13 -10,-21 3,-2 10,-4 15,1 2,2 3,4 4,7 0,7 -4,11 -9,13z"/>
    <path class="fil1" d="M39 55c-2,1 -4,2 -5,0 -1,-1 0,-3 0,-4l4 0c1,1 1,3 1,4z"/>
    <path class="fil2" d="M82 98l8 -1c0,-6 0,-22 -3,-29 -2,-4 -7,-5 -12,-5 3,-4 7,-7 6,-13 -3,-12 -18,-11 -21,-1 -1,7 4,10 7,13 -6,1 -11,3 -13,6 -2,3 -3,8 -3,13 0,6 0,13 1,17 9,0 20,0 30,0z"/>
   </g>
   <g>
    <path class="fil3" d="M84 57c-1,-3 4,-2 4,-7 -4,-3 -5,-8 -4,-13 2,-6 11,-16 27,-10 13,5 15,21 3,27 -6,2 -8,3 -17,2 -7,1 -11,1 -13,1z"/>
    <path class="fil4" d="M88 55c1,-2 2,-1 2,-7 -3,-2 -4,-6 -3,-10 2,-6 9,-15 23,-9 11,4 12,17 3,23 -6,2 -7,3 -15,2 -4,1 -6,1 -10,1z"/>
   </g>
   <g>
    <path class="fil5" d="M103 31l-2 0 0 0c0,0 0,0 0,0 -1,0 -1,0 -2,0 0,0 -1,1 -1,1 -1,1 -2,1 -2,2 -1,1 -1,3 0,4 1,0 2,0 2,0 1,-1 1,-4 3,-4 2,0 3,0 4,1 0,1 0,2 0,2 -1,1 -3,3 -4,4 0,0 -1,1 -1,3 0,0 0,1 1,1 0,0 1,0 2,0 0,0 0,-1 1,-2 0,0 0,0 0,-1 1,-1 3,-1 4,-3 0,0 1,-1 1,-1 0,-1 0,-3 0,-4 -1,-2 -3,-2 -4,-3 -1,0 -1,0 -1,0 -1,0 -1,0 -1,0z"/>
    <path class="fil5" d="M102 52l0 0c0,0 1,0 1,-1 0,0 0,0 1,0 1,-2 0,-4 -2,-4 -3,0 -3,3 -1,4 0,0 0,0 0,1 0,0 0,0 1,0z"/>
   </g>
   <g>
    <path class="fil3" d="M54 32c0,-3 5,-2 5,-7 -5,-3 -5,-8 -4,-12 2,-7 10,-17 27,-11 13,5 14,21 3,27 -7,2 -8,3 -17,2 -7,1 -11,1 -14,1z"/>
    <path class="fil4" d="M59 30c1,-2 2,-1 2,-7 -4,-2 -4,-6 -3,-10 2,-6 9,-15 23,-9 11,4 12,17 2,23 -5,2 -6,3 -14,2 -4,1 -7,1 -10,1z"/>
   </g>
   <g>
    <path class="fil5" d="M72 6c-2,0 -1,1 -1,2 0,0 0,1 0,2 0,2 0,6 0,8 0,1 0,2 1,2 0,0 3,0 3,0 1,0 1,-7 1,-8 0,-2 0,-3 0,-4 0,-1 0,-2 -1,-2 -1,0 -3,0 -3,0z"/>
    <path class="fil5" d="M71 23c0,3 -1,3 2,3 3,0 3,0 3,-3 0,-1 -1,-1 -4,-1 -1,0 -1,0 -1,1z"/>
   </g>
  </g>
 </g>
</svg>
