<?xml version="1.0" encoding="UTF-8"?>
<!DOCTYPE svg PUBLIC "-//W3C//DTD SVG 1.1//EN" "http://www.w3.org/Graphics/SVG/1.1/DTD/svg11.dtd">
<!-- Creator: CorelDRAW X8 -->
<svg xmlns="http://www.w3.org/2000/svg" xml:space="preserve" width="6.7861mm" height="8.8991mm" version="1.1" style="shape-rendering:geometricPrecision; text-rendering:geometricPrecision; image-rendering:optimizeQuality; fill-rule:evenodd; clip-rule:evenodd"
viewBox="0 0 45 59"
 xmlns:xlink="http://www.w3.org/1999/xlink">
 <defs>
  <style type="text/css">
   <![CDATA[
    .fil0 {fill:#010101}
   ]]>
  </style>
 </defs>
 <g id="Capa_x0020_1">
  <metadata id="CorelCorpID_0Corel-Layer"/>
  <g id="_701069280">
   <path class="fil0" d="M19 46l-10 0 0 6 -9 0 0 7c2,0 1,0 1,-5l10 0 0 -6 10 0 0 -6 23 0c1,-1 1,0 1,-1 -1,-1 -22,-1 -26,-1l0 6z"/>
   <path class="fil0" d="M33 0c-5,2 -3,8 0,10 0,0 -1,0 -1,0 -5,1 -11,2 -9,6 1,1 3,0 5,0 -2,1 -5,2 -4,5 2,2 5,-2 8,-3 3,6 -2,6 -4,9 -1,2 0,6 0,8 0,3 1,4 4,3 2,-5 -2,-8 4,-12 0,4 0,5 1,9 0,3 3,5 4,2 1,-1 0,-6 0,-8 0,-5 0,-6 0,-10 -1,-5 -1,-9 -3,-10 4,-2 1,-11 -5,-9z"/>
   <path class="fil0" d="M4 12c-5,2 -3,8 1,9 -3,2 -3,10 -3,13 0,4 1,6 1,8 -1,4 -2,5 -1,8 6,2 5,-8 5,-13l4 0c0,4 -1,9 5,7 0,-2 0,-8 0,-10 -1,-2 -3,-2 -6,-2 1,-7 2,-5 10,-10 2,-1 3,-1 1,-3 -1,-1 -4,1 -7,2 2,-2 3,-2 5,-4 2,-2 0,-5 -3,-3l-6 5c2,-4 -1,-9 -6,-7z"/>
  </g>
 </g>
</svg>
