<?xml version="1.0" encoding="UTF-8"?>
<!DOCTYPE svg PUBLIC "-//W3C//DTD SVG 1.1//EN" "http://www.w3.org/Graphics/SVG/1.1/DTD/svg11.dtd">
<!-- Creator: CorelDRAW X8 -->
<svg xmlns="http://www.w3.org/2000/svg" xml:space="preserve" width="6.7861mm" height="8.8991mm" version="1.1" style="shape-rendering:geometricPrecision; text-rendering:geometricPrecision; image-rendering:optimizeQuality; fill-rule:evenodd; clip-rule:evenodd"
viewBox="0 0 59 77"
 xmlns:xlink="http://www.w3.org/1999/xlink">
 <defs>
  <style type="text/css">
   <![CDATA[
    .fil0 {fill:#010101}
   ]]>
  </style>
 </defs>
 <g id="Capa_x0020_1">
  <metadata id="CorelCorpID_0Corel-Layer"/>
  <g id="_613094688">
   <path class="fil0" d="M25 60l-13 0 0 8 -12 0 0 9c2,-1 2,0 2,-7l12 0 0 -8 13 0 0 -8 30 0c2,0 1,1 2,-1 -2,-1 -29,-1 -34,-1l0 8z"/>
   <path class="fil0" d="M43 1c-6,2 -5,10 0,12 0,0 -1,0 -2,0 -6,2 -14,3 -11,7 1,2 4,1 6,0 -2,2 -6,4 -4,7 2,3 6,-2 10,-3 3,7 -3,7 -5,12 -1,2 -1,7 -1,9 0,5 2,6 6,5 3,-7 -2,-11 5,-16 0,6 0,6 1,11 1,5 4,7 6,4 1,-2 -1,-8 -1,-12 1,-5 1,-7 0,-12 -1,-7 0,-12 -4,-13 6,-3 2,-14 -6,-11z"/>
   <path class="fil0" d="M6 15c-7,3 -5,11 0,12 -3,3 -3,13 -3,18 -1,4 1,7 0,10 0,4 -2,7 0,11 8,2 7,-12 6,-18l5 1c0,4 -1,11 6,8 1,-3 1,-10 0,-13 0,-2 -3,-2 -6,-2 1,-9 1,-7 12,-13 3,-1 3,-2 1,-5 -1,-1 -5,2 -9,3 2,-2 4,-3 6,-5 4,-3 1,-6 -3,-4l-8 7c3,-5 -1,-13 -7,-10z"/>
  </g>
 </g>
</svg>
