<?xml version="1.0" encoding="UTF-8"?>
<!DOCTYPE svg PUBLIC "-//W3C//DTD SVG 1.1//EN" "http://www.w3.org/Graphics/SVG/1.1/DTD/svg11.dtd">
<!-- Creator: CorelDRAW X8 -->
<svg xmlns="http://www.w3.org/2000/svg" xml:space="preserve" width="9.5032mm" height="9.0524mm" version="1.1" style="shape-rendering:geometricPrecision; text-rendering:geometricPrecision; image-rendering:optimizeQuality; fill-rule:evenodd; clip-rule:evenodd"
viewBox="0 0 660 629"
 xmlns:xlink="http://www.w3.org/1999/xlink">
 <defs>
  <style type="text/css">
   <![CDATA[
    .str0 {stroke:#FEFEFE;stroke-width:13.8974}
    .fil0 {fill:none}
    .fil2 {fill:#FEFEFE}
    .fil1 {fill:#1C1B17}
   ]]>
  </style>
 </defs>
 <g id="Capa_x0020_1">
  <metadata id="CorelCorpID_0Corel-Layer"/>
  <g id="_701090752">
   <line class="fil0 str0" x1="497" y1="425" x2="497" y2= "257" />
   <path class="fil1" d="M295 349l0 19c1,2 3,17 4,22 4,17 12,38 23,51 2,3 4,5 5,7 4,5 15,16 20,19 9,7 19,14 31,19 52,22 113,9 151,-29 33,-33 54,-91 29,-151 -5,-12 -16,-29 -25,-37 -2,-3 -3,-5 -6,-7 -13,-12 -26,-23 -46,-29 -3,-1 -5,-3 -9,-4 -3,-1 -6,-1 -10,-2 -4,-1 -19,-3 -22,-4l-16 0c-1,1 -13,2 -14,2 -56,8 -104,56 -112,111l-3 13z"/>
   <path class="fil2" d="M422 258c-94,13 -122,124 -56,181 17,14 46,27 77,23 25,-3 52,-16 67,-35 9,-12 14,-18 19,-33 12,-35 5,-70 -17,-99 -12,-15 -28,-25 -46,-32 -11,-4 -31,-7 -44,-5z"/>
   <path class="fil1" d="M622 588l7 0c1,0 4,0 6,-1 24,-7 24,-26 25,-30l0 -7c-4,-9 3,-9 -19,-30l-50 -49c-2,-2 -22,-24 -25,-24 -1,1 -3,5 -5,7l-8 10c-1,1 -1,2 -2,3 -6,6 -19,18 -26,23 -2,1 -5,3 -6,4 0,3 10,11 12,13 4,5 8,8 12,13l49 49c5,4 8,8 13,12 7,6 13,5 17,7z"/>
   <path class="fil1" d="M353 360l22 0c1,-4 1,-8 2,-12 0,-4 2,-8 3,-11 2,-3 3,-7 5,-9 7,-10 13,-15 24,-20 3,-1 7,-2 10,-3 4,-1 9,-1 13,-2l0 -22c-9,-2 -25,3 -32,6 -18,9 -32,22 -40,40 -4,7 -9,24 -7,33z"/>
   <path class="fil1" d="M339 625l89 -4c0,-23 2,-58 1,-96 -87,-4 -157,-77 -157,-165 0,-45 18,-85 47,-115 -17,-4 -36,-6 -54,-7 30,-42 81,-69 65,-145 -26,-130 -198,-115 -226,-9 -20,79 37,110 68,152 -66,2 -118,26 -143,62 -23,31 -27,84 -29,139 -1,73 4,149 6,192 109,1 222,0 333,-4z"/>
  </g>
 </g>
</svg>
