<?xml version="1.0" encoding="UTF-8"?>
<!DOCTYPE svg PUBLIC "-//W3C//DTD SVG 1.1//EN" "http://www.w3.org/Graphics/SVG/1.1/DTD/svg11.dtd">
<!-- Creator: CorelDRAW X8 -->
<svg xmlns="http://www.w3.org/2000/svg" xml:space="preserve" width="9.5032mm" height="9.0524mm" version="1.1" style="shape-rendering:geometricPrecision; text-rendering:geometricPrecision; image-rendering:optimizeQuality; fill-rule:evenodd; clip-rule:evenodd"
viewBox="0 0 242 230"
 xmlns:xlink="http://www.w3.org/1999/xlink">
 <defs>
  <style type="text/css">
   <![CDATA[
    .str0 {stroke:#FEFEFE;stroke-width:5.08919}
    .fil0 {fill:none}
    .fil2 {fill:#FEFEFE}
    .fil1 {fill:#201E1E}
   ]]>
  </style>
 </defs>
 <g id="Capa_x0020_1">
  <metadata id="CorelCorpID_0Corel-Layer"/>
  <g id="_613107104">
   <line class="fil0 str0" x1="182" y1="156" x2="182" y2= "94" />
   <path class="fil1" d="M108 128l0 7c0,1 1,6 1,8 2,6 5,14 9,19 1,0 1,1 2,2 1,2 5,6 7,7 3,3 7,5 12,7 19,8 41,3 55,-11 12,-12 19,-33 10,-55 -2,-4 -5,-10 -9,-14 0,0 -1,-1 -2,-2 -5,-4 -10,-8 -17,-11 -1,0 -2,-1 -3,-1 -1,0 -2,-1 -4,-1 -1,0 -7,-1 -8,-1l-6 0c0,0 -4,0 -5,1 -20,2 -38,20 -41,40l-1 5z"/>
   <path class="fil2" d="M154 95c-34,4 -44,45 -20,66 6,5 17,10 28,8 9,-1 19,-6 25,-13 3,-4 5,-6 7,-12 4,-13 1,-26 -7,-36 -4,-5 -10,-9 -16,-12 -4,-1 -12,-2 -17,-1z"/>
   <path class="fil1" d="M228 215l2 0c1,0 2,0 3,0 8,-3 8,-10 9,-11l0 -3c-2,-3 1,-3 -7,-11l-18 -18c-1,0 -9,-8 -10,-8 0,0 -1,1 -1,2l-3 4c-1,0 -1,1 -1,1 -2,2 -7,7 -10,8 0,1 -1,1 -2,2 0,1 4,4 4,5 2,1 3,3 5,4l18 18c1,2 3,3 5,5 2,2 4,2 6,2z"/>
   <path class="fil1" d="M129 132l8 0c1,-2 1,-3 1,-5 0,-1 1,-2 1,-4 1,-1 1,-2 2,-3 3,-3 5,-5 9,-7 1,-1 2,-1 4,-1 1,-1 3,-1 4,-1l0 -8c-3,-1 -9,1 -12,2 -6,3 -11,8 -14,15 -2,2 -3,8 -3,12z"/>
   <path class="fil1" d="M124 229l33 -1c0,-9 0,-22 0,-36 -32,-1 -57,-28 -57,-60 0,-17 6,-31 17,-42 -6,-2 -13,-3 -20,-3 11,-15 30,-25 24,-53 -10,-47 -73,-42 -83,-3 -7,29 14,40 25,55 -24,1 -43,10 -53,23 -8,12 -9,31 -10,51 -1,27 2,55 2,70 40,1 81,0 122,-1z"/>
  </g>
 </g>
</svg>
