<?xml version="1.0" encoding="UTF-8"?>
<!DOCTYPE svg PUBLIC "-//W3C//DTD SVG 1.1//EN" "http://www.w3.org/Graphics/SVG/1.1/DTD/svg11.dtd">
<!-- Creator: CorelDRAW X8 -->
<svg xmlns="http://www.w3.org/2000/svg" xml:space="preserve" width="5.7531mm" height="9.4799mm" version="1.1" style="shape-rendering:geometricPrecision; text-rendering:geometricPrecision; image-rendering:optimizeQuality; fill-rule:evenodd; clip-rule:evenodd"
viewBox="0 0 38 63"
 xmlns:xlink="http://www.w3.org/1999/xlink">
 <defs>
  <style type="text/css">
   <![CDATA[
    .fil2 {fill:black}
    .fil4 {fill:#010101}
    .fil0 {fill:#030303}
    .fil3 {fill:#82858B}
    .fil1 {fill:#FCFCFC}
   ]]>
  </style>
 </defs>
 <g id="Capa_x0020_1">
  <metadata id="CorelCorpID_0Corel-Layer"/>
  <g id="_613111296">
   <path class="fil0" d="M5 43c2,5 5,11 5,18 0,0 -1,0 -1,1 0,2 3,1 5,1l14 0c1,0 1,-1 1,-1 0,-1 0,-1 0,-1l-1 0c1,-6 3,-13 5,-18 3,0 2,0 4,-3 0,-1 1,-2 1,-3 0,0 0,-3 0,-3 -5,0 -15,0 -21,0 -2,0 -16,-1 -17,0 0,0 0,3 0,4 1,1 2,2 2,3 1,2 1,1 3,2z"/>
   <g>
    <path class="fil0" d="M6 25c0,8 -1,7 7,7l14 0c0,-12 0,-7 -2,-9 -2,-1 0,-4 1,-3 1,0 1,1 1,2 1,1 1,1 1,1 2,2 3,3 2,4 0,1 -1,-1 -1,-1l0 6c4,0 4,-1 4,-5 0,-7 0,-9 -4,-10 -1,-1 -4,-2 -5,-2 -1,0 -2,6 -3,9 0,-1 0,-4 0,-5 -4,-1 -2,2 -3,4 -1,-1 -2,-7 -3,-8 -1,0 -5,2 -6,2 -3,1 -3,4 -3,8z"/>
    <path class="fil1" d="M19 12c4,0 4,-4 6,-5 0,-1 1,-2 0,-3l0 0c-1,-2 0,-3 -2,-3 -1,-1 -2,0 -4,0 -1,0 -1,-1 -2,-1 -1,1 -2,1 -3,2 0,1 0,1 0,2 -1,0 -1,0 -1,1 1,2 1,1 2,3 0,2 2,4 4,4z"/>
    <path class="fil2" d="M18 18l3 0c0,-1 1,-1 0,-2 -1,0 -3,-1 -4,0 0,1 1,1 1,2z"/>
    <path class="fil3" d="M13 3c0,0 0,0 0,0z"/>
    <path class="fil4" d="M21 15c-7,2 -12,-8 -6,-12 2,-2 6,-3 9,0 1,1 2,3 2,4 0,4 -2,7 -5,8z"/>
   </g>
  </g>
 </g>
</svg>
