<?xml version="1.0" encoding="UTF-8"?>
<!DOCTYPE svg PUBLIC "-//W3C//DTD SVG 1.1//EN" "http://www.w3.org/Graphics/SVG/1.1/DTD/svg11.dtd">
<!-- Creator: CorelDRAW X8 -->
<svg xmlns="http://www.w3.org/2000/svg" xml:space="preserve" width="7.5458mm" height="9.9822mm" version="1.1" style="shape-rendering:geometricPrecision; text-rendering:geometricPrecision; image-rendering:optimizeQuality; fill-rule:evenodd; clip-rule:evenodd"
viewBox="0 0 140 185"
 xmlns:xlink="http://www.w3.org/1999/xlink">
 <defs>
  <style type="text/css">
   <![CDATA[
    .fil1 {fill:#373435}
    .fil2 {fill:#231F27}
    .fil4 {fill:black}
    .fil0 {fill:#010101}
    .fil3 {fill:#FCFCFC}
   ]]>
  </style>
 </defs>
 <g id="Capa_x0020_1">
  <metadata id="CorelCorpID_0Corel-Layer"/>
  <g id="_613136608">
   <g>
    <path class="fil0" d="M128 82c0,0 0,0 0,0z"/>
    <path class="fil1" d="M96 85c2,-4 0,-10 0,-15 9,-3 14,-5 18,-12 15,-23 -14,-48 -43,-37 -22,9 -25,35 -4,47 3,2 9,2 11,3 4,3 12,15 18,14z"/>
    <path class="fil2" d="M37 54c-1,5 -2,11 -1,15 4,0 6,-2 9,-5l7 -8c-7,-17 1,-34 25,-39 -6,-8 -10,-14 -23,-16 -13,-2 -24,1 -31,8 -18,16 -8,39 14,45z"/>
    <path class="fil3" d="M91 75l-1 -9c8,-3 12,-3 17,-7 4,-4 8,-12 5,-20 -4,-12 -19,-18 -35,-14 -12,2 -25,15 -16,30 8,14 16,7 23,14 2,3 4,5 7,6z"/>
    <path class="fil1" d="M76 50c1,-4 -1,-8 -4,-6 -3,2 -3,8 4,6z"/>
    <path class="fil1" d="M89 45c-4,-2 -8,0 -6,4 1,3 6,2 6,-4z"/>
    <path class="fil1" d="M98 45c-4,-3 -8,-1 -6,4 2,2 7,2 6,-4z"/>
    <path class="fil2" d="M54 172l14 0c0,-12 1,-39 -5,-52 -3,-6 -12,-9 -21,-9 5,-7 13,-11 10,-23 -4,-21 -31,-18 -35,-1 -4,12 5,17 10,24 -10,0 -18,4 -22,9 -4,5 -5,14 -5,22 0,12 1,24 1,31 17,0 35,0 53,-1z"/>
    <path class="fil2" d="M125 184l14 0c1,-12 2,-39 -4,-52 -3,-6 -13,-9 -21,-9 5,-7 12,-11 10,-23 -4,-20 -31,-18 -36,-1 -3,12 6,17 11,24 -10,0 -19,4 -23,9 -3,5 -4,14 -4,23 0,11 1,23 1,30 17,0 35,0 52,-1z"/>
   </g>
   <path class="fil4" d="M56 93c3,2 10,-2 10,-2 3,-5 -8,-1 -10,2z"/>
   <path class="fil4" d="M62 105c2,-4 -6,-9 -6,-9 -5,-1 2,8 6,9z"/>
   <path class="fil4" d="M65 96c-1,-2 -5,-1 -5,-1 -3,2 3,2 5,1z"/>
  </g>
 </g>
</svg>
