<?xml version="1.0" encoding="UTF-8"?>
<!DOCTYPE svg PUBLIC "-//W3C//DTD SVG 1.1//EN" "http://www.w3.org/Graphics/SVG/1.1/DTD/svg11.dtd">
<!-- Creator: CorelDRAW X8 -->
<svg xmlns="http://www.w3.org/2000/svg" xml:space="preserve" width="6.0891mm" height="8.8862mm" version="1.1" style="shape-rendering:geometricPrecision; text-rendering:geometricPrecision; image-rendering:optimizeQuality; fill-rule:evenodd; clip-rule:evenodd"
viewBox="0 0 57 83"
 xmlns:xlink="http://www.w3.org/1999/xlink">
 <defs>
  <style type="text/css">
   <![CDATA[
    .fil0 {fill:#2B2A29}
    .fil1 {fill:black}
   ]]>
  </style>
 </defs>
 <g id="Capa_x0020_1">
  <metadata id="CorelCorpID_0Corel-Layer"/>
  <g id="_701090240">
   <path class="fil0" d="M8 58c0,0 0,0 0,5l0 20 8 0c0,-4 1,-8 0,-13 0,-2 0,-10 0,-12 5,0 2,0 5,0l0 25 9 0 0 -54 21 0 0 -8 -27 0c3,-4 7,-6 6,-13 -3,-11 -18,-11 -21,0 -1,6 3,9 6,12 -19,4 -15,13 -15,38l8 0z"/>
   <path class="fil1" d="M48 21c0,7 0,0 0,7 0,2 0,0 -2,3 -2,2 -2,7 5,7 3,0 5,-1 6,-3 1,-5 -3,-5 -3,-6l0 -9c5,-3 4,-9 -3,-9 -3,0 -6,1 -6,3 -1,2 0,3 1,4 0,1 0,1 1,1 2,1 1,0 1,2z"/>
  </g>
 </g>
</svg>
