<?xml version="1.0" encoding="UTF-8"?>
<!DOCTYPE svg PUBLIC "-//W3C//DTD SVG 1.1//EN" "http://www.w3.org/Graphics/SVG/1.1/DTD/svg11.dtd">
<!-- Creator: CorelDRAW X8 -->
<svg xmlns="http://www.w3.org/2000/svg" xml:space="preserve" width="9.1923mm" height="8.5057mm" version="1.1" style="shape-rendering:geometricPrecision; text-rendering:geometricPrecision; image-rendering:optimizeQuality; fill-rule:evenodd; clip-rule:evenodd"
viewBox="0 0 70 64"
 xmlns:xlink="http://www.w3.org/1999/xlink">
 <defs>
  <style type="text/css">
   <![CDATA[
    .fil4 {fill:#FEFEFE}
    .fil1 {fill:#231F27}
    .fil0 {fill:#010101}
    .fil3 {fill:#B7B7B7}
    .fil2 {fill:#FCFCFC}
   ]]>
  </style>
 </defs>
 <g id="Capa_x0020_1">
  <metadata id="CorelCorpID_0Corel-Layer"/>
  <g id="_613123808">
   <path class="fil0" d="M14 64l27 0c0,-2 1,-4 0,-6 -2,-4 -10,-2 -18,-2 0,-3 1,-6 1,-9 -3,-1 -5,-4 -7,-6 -3,-5 1,-7 4,-7 3,1 4,10 18,9 -1,-1 -2,-2 -4,-2 -3,-2 -6,-4 -8,-6 -2,-1 -4,-4 -6,-4 -3,0 -5,1 -7,3 -4,5 -5,18 -4,25 0,1 1,2 2,3 1,1 1,1 2,2z"/>
   <path class="fil0" d="M69 11l0 -2c0,-2 0,-4 -3,-6 -2,-2 -4,-3 -7,-3 -5,0 -10,4 -10,10 0,5 5,9 9,10 4,0 8,-2 10,-5 0,-1 1,-3 1,-4z"/>
   <path class="fil1" d="M58 1c-12,3 -9,19 3,17 4,0 7,-4 7,-9 -1,-5 -5,-9 -10,-8z"/>
   <path class="fil0" d="M30 17c-4,1 -8,5 -7,10 2,11 19,8 17,-3 -1,-4 -5,-8 -10,-7z"/>
   <path class="fil0" d="M19 35c-1,1 -2,2 -2,4 0,1 1,2 2,3 5,7 16,9 24,7 3,-1 3,-6 0,-6 -2,0 -4,0 -6,1 -1,0 -3,-1 -5,-1 -10,-2 -9,-9 -13,-8z"/>
   <path class="fil0" d="M60 64l3 0 0 -9 6 -1 1 -2 -45 0 0 2 35 0c0,2 0,8 0,10z"/>
   <path class="fil0" d="M0 37l0 0c2,3 2,23 2,27l4 0c1,-9 0,-20 -2,-28l-4 1z"/>
   <path class="fil2" d="M0 64l2 0c0,-4 0,-24 -2,-27l0 27z"/>
   <path class="fil3" d="M60 64l0 0c0,-2 0,-8 0,-10l-35 0 0 -2 45 0c-1,0 0,0 -1,0l-5 0c-2,0 -4,0 -5,0 -7,0 -17,0 -23,0 -11,0 -11,-2 -11,3l35 0 0 9z"/>
   <path class="fil0" d="M43 50c0,0 1,0 1,0l0 0c0,0 1,0 1,0l-10 1c-1,0 -1,-1 -1,0 1,1 15,0 18,0 3,0 2,0 2,0 -1,-1 -5,0 -7,-1 1,0 2,-1 2,-3 0,-1 -1,-3 -3,-2 1,3 -1,3 -3,5z"/>
   <path class="fil4" d="M54 7l0 2 5 0 0 8 2 -2c0,0 0,0 0,0 0,-1 0,-2 0,-2 0,-2 0,-3 0,-4 0,-2 -1,-2 -3,-2 -1,0 -3,0 -4,0z"/>
   <path class="fil0" d="M41 42c0,0 -1,-3 -2,-3 0,1 1,4 2,3z"/>
  </g>
 </g>
</svg>
