<?xml version="1.0" encoding="UTF-8"?>
<!DOCTYPE svg PUBLIC "-//W3C//DTD SVG 1.1//EN" "http://www.w3.org/Graphics/SVG/1.1/DTD/svg11.dtd">
<!-- Creator: CorelDRAW X8 -->
<svg xmlns="http://www.w3.org/2000/svg" xml:space="preserve" width="6.6445mm" height="9.0868mm" version="1.1" style="shape-rendering:geometricPrecision; text-rendering:geometricPrecision; image-rendering:optimizeQuality; fill-rule:evenodd; clip-rule:evenodd"
viewBox="0 0 32 44"
 xmlns:xlink="http://www.w3.org/1999/xlink">
 <defs>
  <style type="text/css">
   <![CDATA[
    .fil0 {fill:#252423}
    .fil1 {fill:black}
    .fil2 {fill:white}
   ]]>
  </style>
 </defs>
 <g id="Capa_x0020_1">
  <metadata id="CorelCorpID_0Corel-Layer"/>
  <g id="_701093120">
   <path class="fil0" d="M15 22l4 0c2,-2 2,-2 5,-2 0,-1 -1,-2 -1,-3 -1,-2 -4,-3 -8,-3 2,-3 5,-4 4,-9 -1,-7 -11,-6 -13,0 -1,5 2,6 4,9 -4,0 -7,1 -8,3 -2,2 -2,5 -2,9 0,4 0,8 0,11 5,0 10,0 15,0 1,0 0,-13 0,-15z"/>
   <g>
    <path class="fil1" d="M20 23l-3 0 0 21 15 0 0 -21 -3 0c0,-1 0,-1 -1,-2 -1,-1 -3,0 -4,0 -1,0 -3,-1 -4,1 0,0 0,1 0,1z"/>
    <path class="fil2" d="M22 22c-1,0 -1,2 0,2 1,1 4,1 5,0 1,0 1,-2 0,-2 -1,0 -5,0 -5,0z"/>
    <polygon class="fil2" points="19,40 19,41 24,41 24,40 24,39 19,39 "/>
    <polygon class="fil2" points="19,36 19,37 24,37 24,37 24,36 24,35 19,35 "/>
    <polygon class="fil2" points="19,29 24,29 24,29 24,28 19,28 "/>
    <polygon class="fil2" points="19,33 19,33 24,33 24,33 24,32 19,32 "/>
    <path class="fil2" d="M28 32c-1,0 -1,0 -1,-1 0,1 -1,1 -1,1 0,1 2,2 2,2l1 -2c0,0 0,-1 0,-1 -1,0 -1,1 -1,1z"/>
    <path class="fil2" d="M28 40l-1 -1c0,0 0,1 -1,1 0,0 2,1 2,1 0,0 0,0 1,-1 0,0 0,0 0,-1 0,0 0,0 0,0 -1,0 -1,0 -1,1z"/>
    <path class="fil2" d="M28 36c-1,0 -1,-1 -1,-1 0,1 0,1 -1,1 0,0 2,1 2,1 0,0 1,-1 1,-1 0,-1 0,-1 0,-1l-1 1c0,0 0,0 0,0z"/>
    <path class="fil2" d="M28 28c-1,0 -1,0 -1,0 0,0 -1,0 -1,1l2 1 1 -2c0,0 0,-1 0,-1l-1 1z"/>
   </g>
  </g>
 </g>
</svg>
