<?xml version="1.0" encoding="UTF-8"?>
<!DOCTYPE svg PUBLIC "-//W3C//DTD SVG 1.1//EN" "http://www.w3.org/Graphics/SVG/1.1/DTD/svg11.dtd">
<!-- Creator: CorelDRAW X8 -->
<svg xmlns="http://www.w3.org/2000/svg" xml:space="preserve" width="8.8794mm" height="8.6542mm" version="1.1" style="shape-rendering:geometricPrecision; text-rendering:geometricPrecision; image-rendering:optimizeQuality; fill-rule:evenodd; clip-rule:evenodd"
viewBox="0 0 16344 15930"
 xmlns:xlink="http://www.w3.org/1999/xlink">
 <defs>
  <style type="text/css">
   <![CDATA[
    .fil0 {fill:#231F27}
    .fil1 {fill:black}
   ]]>
  </style>
 </defs>
 <g id="Capa_x0020_1">
  <metadata id="CorelCorpID_0Corel-Layer"/>
  <g id="_613140128">
   <path class="fil0" d="M11547 11014l-2330 19 1836 3921 -1478 -6 -1586 -2969 -1633 3093 -797 -6 -16 -1152 1216 -2773c-402,-234 -1360,-144 -1985,-145l72 -1539 6733 0 -32 1557z"/>
   <path class="fil0" d="M13536 2975l1541 6 -1 -2174c-1873,-143 -3945,63 -5375,-13 -1534,-81 -456,13 -1133,-794l-1157 0c-275,393 -173,96 -193,772l-5733 0 15 2178 1650 -2 0 -582 10386 8 0 601z"/>
   <path class="fil1" d="M262 10461l0 263c788,0 657,131 657,1838 0,787 0,1706 0,2494 -788,131 -919,0 -919,656 525,263 1575,132 2232,132l0 -3807c525,0 393,-132 525,656 393,1181 -132,1707 -132,3151 657,0 1838,131 2232,-132 0,-656 -262,-525 -919,-656 0,-656 263,-1313 131,-1969 -131,-1313 -131,-1050 -131,-2363 394,-263 263,-131 657,-131l-132 -3020c-2100,-918 -1313,1576 -2888,0 -262,-262 -262,-262 -787,-131 -526,131 -394,131 -526,657 0,787 0,1575 0,2362z"/>
   <path class="fil1" d="M2232 3504c-526,-131 -132,-131 -657,-394l-131 657 -788 -132c132,657 263,394 -262,788 656,919 0,788 525,1575 525,1313 2231,1313 2888,263 525,-788 0,-788 525,-1969 -656,-132 -525,0 -525,-788l-788 131 -262 -656 -525 525z"/>
   <path class="fil1" d="M11750 10514l0 263c787,0 656,131 656,1838 0,787 0,1706 0,2494 -788,131 -919,0 -919,656 525,263 1575,132 2232,132l0 -3807c525,0 393,-132 525,656 394,1181 -132,1707 -132,3151 657,0 1838,131 2232,-132 0,-656 -262,-525 -919,-656 0,-656 263,-1313 131,-1969 -131,-1313 -131,-1050 -131,-2363 394,-263 263,-131 657,-131l-132 -3020c-2100,-919 -1312,1576 -2888,0 -262,-262 -262,-262 -787,-131 -525,131 -394,131 -525,656 0,788 0,1576 0,2363z"/>
   <path class="fil1" d="M13719 3557c-525,-131 -132,-131 -657,-394l-131 656 -788 -131c132,657 263,394 -262,788 656,919 0,787 525,1575 525,1313 2232,1313 2888,263 525,-788 0,-788 525,-1969 -656,-132 -525,0 -525,-788l-788 131 -262 -656 -525 525z"/>
  </g>
 </g>
</svg>
