<?xml version="1.0" encoding="UTF-8"?>
<!DOCTYPE svg PUBLIC "-//W3C//DTD SVG 1.1//EN" "http://www.w3.org/Graphics/SVG/1.1/DTD/svg11.dtd">
<!-- Creator: CorelDRAW X8 -->
<svg xmlns="http://www.w3.org/2000/svg" xml:space="preserve" width="9.208mm" height="9.089mm" version="1.1" style="shape-rendering:geometricPrecision; text-rendering:geometricPrecision; image-rendering:optimizeQuality; fill-rule:evenodd; clip-rule:evenodd"
viewBox="0 0 60 60"
 xmlns:xlink="http://www.w3.org/1999/xlink">
 <defs>
  <style type="text/css">
   <![CDATA[
    .fil0 {fill:#1C1B17}
   ]]>
  </style>
 </defs>
 <g id="Capa_x0020_1">
  <metadata id="CorelCorpID_0Corel-Layer"/>
  <g id="_701088000">
   <path class="fil0" d="M6 42c0,0 0,0 0,3l0 15 6 0c0,-3 0,-6 0,-9 0,-2 0,-8 0,-9 3,0 1,0 3,0l0 18 6 0 0 -39 15 0 0 -6 -19 0c2,-3 5,-4 4,-9 -1,-8 -12,-8 -14,0 -1,4 2,6 4,9 -14,2 -11,8 -11,27l6 0z"/>
   <path class="fil0" d="M30 3l-5 0 0 6 30 0 0 27 -30 0 -1 6c3,0 3,0 5,0l-5 11 0 4 3 0 6 -11 6 11 6 0 -7 -15 22 0 0 -39c-7,0 -15,0 -20,0 -6,0 -2,0 -4,-3l-5 0c-1,2 0,0 -1,3z"/>
  </g>
 </g>
</svg>
