<?xml version="1.0" encoding="UTF-8"?>
<!DOCTYPE svg PUBLIC "-//W3C//DTD SVG 1.1//EN" "http://www.w3.org/Graphics/SVG/1.1/DTD/svg11.dtd">
<!-- Creator: CorelDRAW X8 -->
<svg xmlns="http://www.w3.org/2000/svg" xml:space="preserve" width="12.2418mm" height="9.4572mm" version="1.1" style="shape-rendering:geometricPrecision; text-rendering:geometricPrecision; image-rendering:optimizeQuality; fill-rule:evenodd; clip-rule:evenodd"
viewBox="0 0 125 96"
 xmlns:xlink="http://www.w3.org/1999/xlink">
 <defs>
  <style type="text/css">
   <![CDATA[
    .fil1 {fill:#231F27}
    .fil0 {fill:black}
   ]]>
  </style>
 </defs>
 <g id="Capa_x0020_1">
  <metadata id="CorelCorpID_0Corel-Layer"/>
  <g id="_613129248">
   <path class="fil0" d="M68 87c1,-1 0,0 1,-1l0 1c1,1 0,7 0,9l18 0 0 -10c2,1 1,0 2,2l1 8c1,0 2,0 3,0 0,0 1,0 1,0l1 0c2,-1 1,-6 3,-9l0 9 19 0 0 -9c3,3 0,8 3,9l5 0c0,-7 -3,-17 -10,-18 -2,-1 -11,-1 -14,0 -6,0 -6,3 -8,6 -4,-7 -5,-6 -15,-6 -8,0 -11,-1 -14,6 -3,-3 -3,-6 -8,-6 -3,-1 -12,-1 -14,0 -7,0 -11,11 -10,18l5 0c1,-3 1,-7 3,-9l0 9 18 0 0 -9c2,2 2,6 3,9l6 0 1 -9z"/>
   <path class="fil0" d="M105 63c-5,2 -6,6 -5,10 2,3 6,6 10,4 10,-3 4,-18 -5,-14z"/>
   <path class="fil0" d="M76 63c-10,3 -5,18 5,15 9,-4 5,-19 -5,-15z"/>
   <path class="fil0" d="M46 63c-10,4 -3,18 6,14 9,-3 4,-18 -6,-14z"/>
   <path class="fil0" d="M36 41c-5,-4 -7,-10 -12,-10 -4,0 -8,0 -12,0 -11,0 -12,9 -12,18 0,4 0,12 0,16l7 0 0 -24c0,19 -1,31 0,49l10 0 0 -25c0,0 0,-1 0,-1 0,0 0,0 0,0l0 -1c1,1 1,-1 1,5l0 22 9 0c0,-18 -1,-31 0,-48 4,4 6,8 10,8 2,-1 3,-4 4,-6 3,-4 6,-8 6,-12 0,-3 9,-12 10,-17 -3,1 -8,11 -10,14 -4,5 -2,-3 -9,9l-2 3z"/>
   <path class="fil0" d="M15 15c-11,3 -7,19 4,17 11,-3 7,-20 -4,-17z"/>
   <path class="fil1" d="M64 0l-36 0 0 9 81 0 0 42 -56 0 -1 9c9,0 16,1 26,0l42 0 0 -60c-14,-1 -28,1 -39,0l-17 0z"/>
  </g>
 </g>
</svg>
