<?xml version="1.0" encoding="UTF-8"?>
<!DOCTYPE svg PUBLIC "-//W3C//DTD SVG 1.1//EN" "http://www.w3.org/Graphics/SVG/1.1/DTD/svg11.dtd">
<!-- Creator: CorelDRAW X8 -->
<svg xmlns="http://www.w3.org/2000/svg" xml:space="preserve" width="9.2287mm" height="9.0593mm" version="1.1" style="shape-rendering:geometricPrecision; text-rendering:geometricPrecision; image-rendering:optimizeQuality; fill-rule:evenodd; clip-rule:evenodd"
viewBox="0 0 82 80"
 xmlns:xlink="http://www.w3.org/1999/xlink">
 <defs>
  <style type="text/css">
   <![CDATA[
    .fil0 {fill:black}
   ]]>
  </style>
 </defs>
 <g id="Capa_x0020_1">
  <metadata id="CorelCorpID_0Corel-Layer"/>
  <g id="_701060960">
   <path class="fil0" d="M3 34c7,0 10,3 10,10 0,7 -3,9 -10,10l0 17c10,3 20,0 36,9l0 -52c-9,-2 -26,-7 -36,-5l0 11z"/>
   <path class="fil0" d="M43 28l0 52c4,-2 10,-5 15,-6 7,-2 15,-2 20,-3l0 -17c-6,-1 -9,-3 -10,-10 0,-7 4,-10 10,-10l0 -11c-11,-2 -26,2 -35,5z"/>
   <path class="fil0" d="M25 21c1,0 15,4 16,4 1,0 14,-3 15,-4 3,-12 -4,-21 -15,-21 -11,0 -18,9 -16,21z"/>
   <path class="fil0" d="M81 38c-10,-3 -11,7 -8,11 3,2 7,2 8,-1 1,-2 0,-8 0,-10z"/>
   <path class="fil0" d="M0 43l0 2c0,9 10,7 10,-1 0,-8 -10,-10 -10,-1z"/>
  </g>
 </g>
</svg>
