<?xml version="1.0" encoding="UTF-8"?>
<!DOCTYPE svg PUBLIC "-//W3C//DTD SVG 1.1//EN" "http://www.w3.org/Graphics/SVG/1.1/DTD/svg11.dtd">
<!-- Creator: CorelDRAW X8 -->
<svg xmlns="http://www.w3.org/2000/svg" xml:space="preserve" width="10.3843mm" height="8.8208mm" version="1.1" style="shape-rendering:geometricPrecision; text-rendering:geometricPrecision; image-rendering:optimizeQuality; fill-rule:evenodd; clip-rule:evenodd"
viewBox="0 0 161 136"
 xmlns:xlink="http://www.w3.org/1999/xlink">
 <defs>
  <style type="text/css">
   <![CDATA[
    .fil0 {fill:#010103}
    .fil1 {fill:white}
   ]]>
  </style>
 </defs>
 <g id="Capa_x0020_1">
  <metadata id="CorelCorpID_0Corel-Layer"/>
  <g id="_701083456">
   <path class="fil0" d="M109 9c3,6 8,8 2,21 2,2 6,5 9,6l3 2c0,0 0,0 0,0 -6,5 -14,10 -21,14 -21,16 -16,27 -22,37 -1,-2 -2,-6 -3,-9 -2,-7 -7,-19 -13,-23l-14 -10c-3,-3 -12,-8 -14,-11 2,-2 9,-4 13,-6 -1,-4 -4,-6 -3,-11 1,-6 5,-8 5,-10 -8,-1 -47,15 -48,16 -3,3 -4,9 -2,12 2,5 30,24 37,29 5,4 6,3 6,11 0,10 0,22 0,32l0 27c38,1 55,0 69,0 0,-7 -1,-59 0,-62 1,-1 15,-12 18,-14 5,-4 26,-18 28,-22 2,-3 2,-10 -1,-13 -1,-1 -19,-7 -23,-9 -7,-3 -18,-8 -26,-7z"/>
   <path class="fil0" d="M77 24l5 -1c2,4 1,5 5,8 8,9 21,5 24,-5 2,-7 -2,-14 -7,-17 -5,-3 -17,-2 -24,-2 -6,0 -18,-1 -24,1 -14,7 -9,29 7,28 10,-1 12,-7 14,-12z"/>
   <path class="fil0" d="M58 39c2,8 12,14 22,15 11,0 20,-7 22,-15 -21,2 -18,-12 -22,-12 -4,1 -3,15 -22,12z"/>
   <path class="fil1" d="M59 12c-13,4 -7,23 7,20 12,-4 7,-25 -7,-20z"/>
   <path class="fil1" d="M94 12c-13,4 -8,23 6,20 12,-4 8,-25 -6,-20z"/>
   <path class="fil1" d="M77 20l5 0c2,-3 0,-2 5,-9l-14 0c2,5 1,1 4,9z"/>
   <path class="fil0" d="M93 59l-25 0c5,3 18,3 24,1 1,-1 1,-1 1,-1z"/>
   <path class="fil0" d="M70 3l20 0c-5,-4 -15,-4 -20,0z"/>
  </g>
 </g>
</svg>
