<?xml version="1.0" encoding="UTF-8"?>
<!DOCTYPE svg PUBLIC "-//W3C//DTD SVG 1.1//EN" "http://www.w3.org/Graphics/SVG/1.1/DTD/svg11.dtd">
<!-- Creator: CorelDRAW X8 -->
<svg xmlns="http://www.w3.org/2000/svg" xml:space="preserve" width="7.6495mm" height="8.1331mm" version="1.1" style="shape-rendering:geometricPrecision; text-rendering:geometricPrecision; image-rendering:optimizeQuality; fill-rule:evenodd; clip-rule:evenodd"
viewBox="0 0 61 65"
 xmlns:xlink="http://www.w3.org/1999/xlink">
 <defs>
  <style type="text/css">
   <![CDATA[
    .fil0 {fill:#231F27}
    .fil1 {fill:white}
   ]]>
  </style>
 </defs>
 <g id="Capa_x0020_1">
  <metadata id="CorelCorpID_0Corel-Layer"/>
  <g id="_613120960">
   <path class="fil0" d="M37 65l5 0c0,-4 0,-14 -2,-19 -1,-2 -4,-3 -7,-3 1,-3 4,-4 3,-9 -1,-7 -11,-6 -13,0 -1,4 2,6 4,9 -4,0 -7,1 -8,3 -1,2 -2,5 -2,8 0,4 0,9 1,11 6,0 12,0 19,0z"/>
   <path class="fil0" d="M31 18c-1,1 -1,3 -1,5 2,0 2,-1 3,-2l3 -3c14,1 15,-14 2,-18 -4,-1 -10,0 -12,3 -6,5 -3,13 5,15z"/>
   <g>
    <path class="fil0" d="M45 37c0,1 -1,3 0,5 1,-1 2,-1 3,-2l2 -3c14,1 15,-14 2,-18 -4,-1 -9,0 -12,2 -5,6 -2,14 5,16z"/>
    <path class="fil1" d="M49 29c-1,0 -1,-1 -3,-1 -1,1 0,0 -1,2l4 3 6 -7c0,0 -1,-1 -2,-1l-4 4z"/>
   </g>
   <path class="fil0" d="M15 30c0,2 0,4 0,5 -1,0 -2,-1 -3,-2l-2 -2c-13,1 -14,-13 -2,-16 4,-1 9,0 11,2 5,5 2,12 -4,13z"/>
   <path class="fil1" d="M9 24c-1,-1 -1,-1 -2,-2 -1,2 -1,1 -2,2l4 3 6 -6c0,-1 0,-1 -1,-1l-5 4z"/>
   <path class="fil1" d="M30 7l0 0 3 3 -3 3 0 0c0,0 0,1 0,1l1 1 0 0c0,0 3,-3 4,-3 0,0 3,3 3,3l0 0 2 -2 0 0 -4 -3 4 -3 0 0c0,-1 -1,-1 -1,-1l-1 -1 0 0 -2 2c0,0 0,0 0,0 -1,1 -1,1 -1,1 -1,0 -4,-3 -4,-3l0 0c0,0 0,0 0,0l-1 2z"/>
  </g>
 </g>
</svg>
